<svg fill="none" height="24" width="24" xmlns="http://www.w3.org/2000/svg">
    <path clip-rule="evenodd" d="M6 7.5h13a2 2 0 0 1 2 2v8a2 2 0 0 1-2 2H5a2 2 0 0 1-2-2v-8a2 2 0 0 1 2-2h1Zm1-2v-2a1 1 0 0 0-2 0v2a4 4 0 0 0-4 4v8a4 4 0 0 0 4 4h14a4 4 0 0 0 4-4v-8a4 4 0 0 0-4-4v-2a1 1 0 1 0-2 0v2H7Z"
        fill="#fff"
        fill-rule="evenodd" />
    <path clip-rule="evenodd" d="M6 11.313a1 1 0 1 1 2 0 1 1 0 0 1-2 0Zm6-1a1 1 0 1 0 0 2 1 1 0 0 0 0-2Zm4 1a1 1 0 1 1 2 0 1 1 0 0 1-2 0ZM7 14.813a1 1 0 1 0 0 2 1 1 0 0 0 0-2Zm4 1a1 1 0 1 1 2 0 1 1 0 0 1-2 0Zm6-1a1 1 0 1 0 0 2 1 1 0 0 0 0-2Z"
        fill="#fff"
        fill-rule="evenodd" />
</svg>