<svg fill="none" height="24" width="24" xmlns="http://www.w3.org/2000/svg">
    <path clip-rule="evenodd" d="M3.64 3.418a6.43 6.43 0 0 1 4.757-1.376c1.297.15 2.574.635 3.599 1.515 1-.874 2.23-1.364 3.538-1.515a6.43 6.43 0 0 1 4.752 1.373c1.58 1.088 2.36 2.779 2.615 4.455.255 1.682.002 3.446-.586 4.826-.928 2.185-2.69 4.07-4.405 5.525-1.73 1.467-3.492 2.564-4.523 3.158a2.76 2.76 0 0 1-2.777-.007c-1.022-.596-2.765-1.694-4.483-3.159-1.704-1.454-3.459-3.332-4.41-5.506-.608-1.377-.87-3.142-.628-4.823C1.33 6.21 2.09 4.511 3.64 3.418Zm14.936 2.765a1 1 0 0 0-1.152 1.635c.169.119.418.481.527 1.09.104.58.041 1.192-.184 1.652a1 1 0 1 0 1.796.88c.449-.916.52-1.975.357-2.886-.158-.883-.578-1.832-1.344-2.371Z"
        fill="#ffffff"
        fill-rule="evenodd" />
</svg>