<svg fill="none" height="24" width="24" xmlns="http://www.w3.org/2000/svg">
    <path clip-rule="evenodd"
        d="M6 1h12a4 4 0 0 1 4 4v14a4 4 0 0 1-4 4H6a4 4 0 0 1-4-4V5a4 4 0 0 1 4-4Zm0 2a2 2 0 0 0-2 2v14a2 2 0 0 0 2 2h12a2 2 0 0 0 2-2V5a2 2 0 0 0-2-2H6Zm4 4a1 1 0 0 1 1-1h6a1 1 0 1 1 0 2h-6a1 1 0 0 1-1-1Zm1 4a1 1 0 1 0 0 2h6a1 1 0 1 0 0-2h-6Zm-1 6a1 1 0 0 1 1-1h6a1 1 0 1 1 0 2h-6a1 1 0 0 1-1-1ZM7 8a1 1 0 1 0 0-2 1 1 0 0 0 0 2Zm1 4a1 1 0 1 1-2 0 1 1 0 0 1 2 0Zm-1 6a1 1 0 1 0 0-2 1 1 0 0 0 0 2Z"
        fill="#FFffff" fill-rule="evenodd" />
</svg>