<svg fill="none" height="24" width="24" xmlns="http://www.w3.org/2000/svg">
    <path
        d="M10.98 2c-.447 0-.864.21-1.109.558l-1.262 1.8-2.057 1.134-2.308.117a1.34 1.34 0 0 0-1.074.614L2.177 7.82c-.223.36-.236.801-.034 1.172l1.046 1.918v2.178l-1.046 1.917c-.202.371-.19.812.034 1.172l.993 1.599c.224.36.628.59 1.074.613l2.308.117 2.112 1.134 1.263 1.8c.244.349.66.559 1.108.559h1.985c.447 0 .864-.21 1.109-.559l1.263-1.8 2.056-1.134 2.308-.117a1.34 1.34 0 0 0 1.074-.613l.993-1.599c.223-.36.236-.8.034-1.172l-1.045-1.917v-2.178l1.045-1.918c.202-.37.19-.812-.034-1.172l-.993-1.598a1.339 1.339 0 0 0-1.074-.614l-2.308-.117-2.112-1.133-1.262-1.8a1.351 1.351 0 0 0-1.109-.56H10.98Z"
        stroke="#3B3E5B" stroke-width="2" />
    <path d="M10.768 9.866a2.464 2.464 0 1 1 2.464 4.268 2.464 2.464 0 0 1-2.464-4.268Z"
        stroke="#3B3E5B" stroke-width="2" />
</svg>