<svg fill="none" height="24" width="24" xmlns="http://www.w3.org/2000/svg">
    <path
        d="M3 11.5c0-1.505 1.242-2.75 2.806-2.75s2.806 1.245 2.806 2.75-1.242 2.75-2.806 2.75S3 13.005 3 11.5ZM18 6.75c0 1.505-1.242 2.75-2.806 2.75s-2.806-1.245-2.806-2.75S13.63 4 15.194 4 18 5.245 18 6.75ZM18 17.25c0 1.505-1.242 2.75-2.806 2.75s-2.806-1.245-2.806-2.75 1.242-2.75 2.806-2.75S18 15.745 18 17.25Z"
        stroke="#fff" stroke-width="2" />
    <path
        d="M13.181 8.851a1 1 0 0 0-1.049-1.703l1.05 1.704Zm-1.049-1.703-4.06 2.5 1.05 1.704 4.06-2.5-1.05-1.704Z"
        fill="#fff" />
    <path d="M12.657 16 8.09 12.5" stroke="#fff" stroke-width="2" />
</svg>